<?xml version="1.0" encoding="utf-8"?>
<!-- Generator: Adobe Illustrator 27.0.0, SVG Export Plug-In . SVG Version: 6.00 Build 0)  -->
<svg version="1.2" baseProfile="tiny" id="Layer_1" xmlns="http://www.w3.org/2000/svg" xmlns:xlink="http://www.w3.org/1999/xlink"
	 x="0px" y="0px" viewBox="0 0 1326 302" overflow="visible" xml:space="preserve">
<path fill="#2D2926" d="M428.9,173.4c-5.8,1.6-13.6,2.4-23.1,2.4c-4.8,0-8.8,0-11.7-0.5c-3.2-0.5-8.2-1.3-15.4-2.9
	c-2.1-0.3-4-0.5-5.1-0.5c-6.6,0-12.2,2.4-17,6.9c-4.8,4.5-7.2,10.4-7.7,17.5l-0.3,4.3c0,14.1,6.4,23.9,19.4,29.5
	c8,3.7,18.9,5.3,32.7,5.3c22.9,0,40.4-5.3,52.6-16.5c12.2-11.2,18.6-27.4,18.6-48.9c0-18.3-4-34.8-12-49.7
	c-8-14.6-22.1-26.6-42-36.2c-3.7-1.6-7.7-2.7-12-2.7c-5.8,0-11.2,1.9-15.9,5.3c-4.8,3.5-8,8-9.6,13.6c-1.1,3.2-1.6,6.6-1.6,9.8
	c0,5.6,1.3,10.6,4.5,14.9c3.2,4.3,7.7,7.4,14.1,9.6c11.2,4,19.7,7.7,25.5,10.9c5.8,3.2,9.6,6.4,11.4,9c1.9,2.9,2.9,6.1,2.9,9.8
	C437.4,168.6,434.5,171.8,428.9,173.4z"/>
<path fill="#2D2926" d="M628.3,177.4l-4.5-1.6h-15.4c-1.6-21.3-7.2-38-16.5-50.5c-9.3-12.5-22.3-18.9-39.3-18.9
	c-13.3,0-24.2,3.5-33,10.1c-8.8,6.9-15.2,15.7-19.4,26.6c-4.3,11.2-6.4,22.9-6.4,35.4c0,16.5,4,29.2,12,38.3
	c8,9,20.2,13.6,36.7,13.6H577c-3.2,5.3-8.8,9.3-16.7,12.5s-17.5,4.5-29,4.5c-8,0-16.7-0.8-26.3-2.7c-2.7-0.3-4.3-0.5-5-0.5
	c-6.4,0-11.7,2.4-15.4,6.6c-4,4.3-5.8,10.4-5.8,17.8c0,6.9,1.3,12.8,4.5,17.3c2.9,4.8,7.7,8.2,14.1,10.9c3.7,1.6,8.5,2.9,14.9,3.7
	c6.4,1.1,12.8,1.3,19.4,1.3c19.1,0,35.4-5.8,48.1-18.1c12.8-12,21.5-28.4,26-49.4h18.1l4.5-0.8V177.4z M528.6,176.1
	c-3.5-0.5-5-1.9-5-4c0-3.7,2.1-7.2,6.9-10.1c4.5-2.7,10.6-4.3,18.3-4.3c8.8,0,15.4,1.9,20.2,5.3c4.8,3.5,7.2,8.2,7.7,14.1h-28.2
	C538.4,177.2,531.8,176.9,528.6,176.1z"/>
<path fill="#2D2926" d="M620.5,176.6v56.9l4.5,0.8h65.5l4.5-0.8v-56.9l-4.5-0.8h-65.5L620.5,176.6z"/>
<path fill="#2D2926" d="M831.2,176.6l-4.8-0.8c-11.7,0-19.9,0-24.5-0.5c6.9-7.4,10.4-18.1,10.4-31.9c0-18.6-4.8-33-14.4-43.6
	c-9.6-10.4-22.6-15.7-39.3-15.7c-17,0-30,5.3-39.6,15.7c-9.6,10.6-14.1,25-14.1,43.6c0,13.8,3.5,24.5,10.4,31.9
	c-4.8,0.5-12.8,0.5-24.5,0.5l-4.8,0.8v56.9l4.8,0.8c28.7,0,51.3-4.3,67.8-12.8c16.2,8.5,38.8,12.8,67.8,12.8l4.8-0.8V176.6z
	 M741.9,141c3.5-2.4,9-3.7,16.7-3.7c7.4,0,13,1.3,16.7,3.7c3.5,2.7,5.3,6.6,5.3,12c0,3.7-1.9,6.6-5.6,9c-3.7,2.7-9.3,4.8-17,6.4
	c-14.4-3.2-21.5-8.2-21.5-15.4C736.6,147.6,738.2,143.7,741.9,141z M723,62.3c3.7,4,8.2,5.8,13.3,5.8c5.3,0,9.8-1.9,13.6-5.6
	c3.7-3.7,5.6-8.5,5.6-13.8c0-5.1-2.1-9.6-5.8-13.3c-3.7-3.7-8.2-5.6-13.3-5.6c-5,0-9.6,1.9-13.3,5.6c-3.7,3.7-5.6,8.2-5.6,13.3
	C717.4,54.1,719.3,58.6,723,62.3z M766.6,62.6c3.5,3.7,8,5.6,13.3,5.6c5.3,0,9.8-1.9,13.6-5.8c3.7-3.7,5.8-8.2,5.8-13.6
	c0-4.8-2.1-9.3-5.8-13c-4-3.7-8.5-5.8-13.6-5.8c-5.3,0-9.6,1.9-13.3,5.6c-3.7,3.7-5.3,8.2-5.3,13.3
	C761.3,54.1,762.9,58.9,766.6,62.6z"/>
<path fill="#2D2926" d="M822.1,233.5l4.5,0.8c13.3,0,24.7-3.2,34.6-10.1c9.8-6.6,17.3-15.7,22.6-27.4c5-11.7,7.7-24.7,7.7-39.3
	c0-9.8-0.8-17.8-2.1-24.2c-1.6-7.4-4.3-13-7.7-16.7c-3.5-3.7-8.2-5.8-14.1-5.8c-5.3,0-9.8,1.6-13,4.8c-3.2,3.2-4.8,7.7-4.8,13.3
	c0,2.4,0.5,6.4,1.6,12c1.1,7.4,1.9,13,1.9,16.7c0,6.6-2.1,11.4-6.1,14.1c-4,2.9-10.9,4.3-20.5,4.3l-4.5,0.8V233.5z M852.6,86.2
	c4,4.3,8.8,6.1,14.1,6.1c5.6,0,10.4-1.9,14.4-6.1c3.7-4,5.8-8.8,5.8-14.4c0-5.3-2.1-9.8-6.1-13.8S872,52,866.7,52
	s-10.1,2.1-14.1,6.1s-5.8,8.5-5.8,13.8C846.8,77.5,848.7,82.3,852.6,86.2z"/>
<path fill="#2D2926" d="M272.6,194.7l-4.5-0.8c-8.5,0-14.9-0.8-19.1-2.4c-4.5-1.6-7.7-4.8-9.8-9.3c-2.1-4.3-2.9-10.9-2.9-19.4v-10.6
	c0-4.8-1.3-8.8-3.7-11.7c-2.7-2.9-6.1-4.5-10.4-4.5c-4.5,0-8,1.6-10.6,4.5c-2.7,2.9-3.7,6.9-3.7,12v9.3c0,9.3-2.4,16.2-6.6,20.5
	c-4.3,4.5-12,7.7-22.6,9.3c-10.9,1.6-27.1,2.4-48.9,2.4c-21.8,0-38-0.8-48.6-2.7c-10.9-1.9-18.6-5.1-22.9-9.8
	c-4.3-4.8-6.4-11.7-6.4-21c0-5.1,0.5-10.4,1.9-15.9c0-0.5,0.3-1.9,0.3-3.5c0-3.7-1.1-6.9-3.2-9.6c-2.1-2.7-5.1-4-8.8-4
	c-4,0-7.2,1.3-9.8,4c-2.7,2.7-4.8,6.4-6.1,10.9c-2.1,6.4-2.9,14.6-2.9,24.5c0,17.3,2.9,30.8,9.3,40.4c6.4,9.6,17,16.5,31.9,20.7
	c14.9,4.3,35.6,6.4,62.7,6.4c28.2,0,49.4-2.1,64.1-6.6c14.6-4.3,24.7-12,30.3-22.6c2.1,10.1,7.2,17.3,14.9,22.1
	c7.7,4.8,18.3,7.2,31.9,7.2l4.5-0.8V194.7z M102.2,119.5c2.9,3.2,6.4,4.5,10.6,4.5s7.7-1.3,10.9-4.5c2.9-3.2,4.5-6.6,4.5-10.9
	c0-4-1.6-7.4-4.8-10.6c-3.2-2.9-6.6-4.5-10.6-4.5c-4.3,0-7.7,1.6-10.6,4.5c-3.2,3.2-4.5,6.6-4.5,10.6
	C97.7,112.8,99,116.3,102.2,119.5z M137.6,119.5c2.9,3.2,6.4,4.5,10.6,4.5c4.3,0,7.7-1.3,10.9-4.5c3.2-3.2,4.8-6.6,4.8-10.9
	c0-4-1.6-7.4-4.8-10.6c-3.2-2.9-6.6-4.5-10.9-4.5c-4.3,0-7.7,1.6-10.6,4.5c-2.9,3.2-4.3,6.6-4.3,10.6
	C133.3,112.8,134.6,116.3,137.6,119.5z"/>
<path fill="#2D2926" d="M321,204.3c4.3-10.6,6.4-24.7,6.4-42.5V48.1c0-5.6-1.3-10.1-4-13.3c-2.7-3.2-6.6-5.1-11.4-5.1
	c-5.1,0-8.8,1.9-11.4,5.1c-2.7,3.2-4,7.7-4,13.3V171c0,6.4-0.8,11.2-2.4,14.4c-1.6,3.2-4.5,5.6-8.5,6.6c-4,1.3-9.8,1.9-17.3,1.9
	l-4.8,0.8v38.8l4.8,0.8c13.8,0,25-2.4,33.5-7.2C310.4,222.3,316.8,214.9,321,204.3z"/>
<path fill="#14C0FF" d="M1101.5,222.8c-21.3,20.7-34.4,31.1-50,31.1c-19,0-34.4-15.4-65.3-46.2c-30.9-30.8-46.3-46.2-46.3-65.2
	c0-19,15.4-34.4,46.3-65.2c30.9-30.8,46.3-46.2,65.3-46.2c15.6,0,28.8,10.4,50,31.1L1086,77.7c-30.6,30.5-45.9,45.8-45.9,64.8
	c0,19,15.3,34.2,45.9,64.8L1101.5,222.8z"/>
<path fill-rule="evenodd" fill="#06038D" d="M1101.5,62.2c4.7,4.5,9.7,9.6,15.3,15.1c30.9,30.8,46.3,46.2,46.3,65.2
	c0,19-15.4,34.4-46.3,65.2c-5.6,5.5-10.6,10.6-15.3,15.1l-15.6-15.5c-30.6-30.5-45.9-45.8-45.9-64.8c0-19,15.3-34.2,45.9-64.8
	L1101.5,62.2z"/>
<path fill-rule="evenodd" fill="#0202CF" d="M1101.5,62.2c4.7,4.5,9.7,9.6,15.3,15.1c30.9,30.8,46.3,46.2,46.3,65.2
	c0,19-15.4,34.4-46.3,65.2c-5.6,5.5-10.6,10.6-15.3,15.1l-15.6-15.5c-30.6-30.5-45.9-45.8-45.9-64.8c0-19,15.3-34.2,45.9-64.8
	L1101.5,62.2z"/>
<path fill-rule="evenodd" fill="#0202CF" d="M1101.5,62.2c4.7,4.5,9.7,9.6,15.3,15.1c30.9,30.8,46.3,46.2,46.3,65.2
	c0,19-15.4,34.4-46.3,65.2c-5.6,5.5-10.6,10.6-15.3,15.1l-15.6-15.5c-30.6-30.5-45.9-45.8-45.9-64.8c0-19,15.3-34.2,45.9-64.8
	L1101.5,62.2z"/>
<path fill="#2E38FF" d="M1247.8,45.8l32,32c30.6,30.5,45.9,45.8,45.9,64.8s-15.3,34.2-45.9,64.8l-32,32
	c-30.6,30.5-45.9,45.8-64.9,45.8c-19,0-34.3-15.3-64.9-45.8l-16.5-16.4c4.7-4.5,9.7-9.6,15.3-15.1c30.9-30.8,46.3-46.2,46.3-65.2
	s-15.4-34.4-46.3-65.2c-5.6-5.5-10.6-10.6-15.3-15.1l16.5-16.4c30.6-30.5,45.9-45.8,64.9-45.8C1201.9,0,1217.2,15.3,1247.8,45.8z"/>
<path fill="#3842FF" d="M1247.8,45.8l32,32c30.6,30.5,45.9,45.8,45.9,64.8s-15.3,34.2-45.9,64.8l-32,32
	c-30.6,30.5-45.9,45.8-64.9,45.8c-19,0-34.3-15.3-64.9-45.8l-16.5-16.4c4.7-4.5,9.7-9.6,15.3-15.1c30.9-30.8,46.3-46.2,46.3-65.2
	s-15.4-34.4-46.3-65.2c-5.6-5.5-10.6-10.6-15.3-15.1l16.5-16.4c30.6-30.5,45.9-45.8,64.9-45.8C1201.9,0,1217.2,15.3,1247.8,45.8z"/>
<path fill="#3842FF" d="M1247.8,45.8l32,32c30.6,30.5,45.9,45.8,45.9,64.8s-15.3,34.2-45.9,64.8l-32,32
	c-30.6,30.5-45.9,45.8-64.9,45.8c-19,0-34.3-15.3-64.9-45.8l-16.5-16.4c4.7-4.5,9.7-9.6,15.3-15.1c30.9-30.8,46.3-46.2,46.3-65.2
	s-15.4-34.4-46.3-65.2c-5.6-5.5-10.6-10.6-15.3-15.1l16.5-16.4c30.6-30.5,45.9-45.8,64.9-45.8C1201.9,0,1217.2,15.3,1247.8,45.8z"/>
</svg>
