<?xml version="1.0" encoding="utf-8"?>
<!-- Generator: Adobe Illustrator 27.0.0, SVG Export Plug-In . SVG Version: 6.00 Build 0)  -->
<svg version="1.2" baseProfile="tiny" id="Layer_1" xmlns="http://www.w3.org/2000/svg" xmlns:xlink="http://www.w3.org/1999/xlink"
	 x="0px" y="0px" viewBox="0 0 1664 291" overflow="visible" xml:space="preserve">
<path fill="#2D2926" d="M1359.2,238.8c11.1,0,18.7-7.6,18.7-21.7V52.7c0-14.1-7.6-21.7-18.7-21.7c-11.7,0-19.3,7.6-19.3,21.7v164.3
	C1339.9,231.1,1347.5,238.8,1359.2,238.8z M1482.1,241.1c19.9,0,36.3-5.9,46.2-12.9c7.6-5.3,11.1-11.2,11.1-17c0-8.2-7-13.5-14-13.5
	c-4.7,0-7.6,1.8-12.3,5.3c-11.1,7.6-18.7,10-28.1,10c-22.8,0-36.9-15.3-38.6-40.5h75.5c14,0,21.7-8.8,21.7-22.9
	c0-42.3-25.8-67.5-66.1-67.5c-42.1,0-69.1,31.1-69.1,79.8C1408.4,210.6,1436.5,241.1,1482.1,241.1z M1448.2,148.4
	c0-25.8,11.1-38.7,30.4-38.7c17.6,0,29.3,12.9,29.3,38.7H1448.2z M1626.1,241.1c14.1,0,31.6-4.7,31.6-18.8c0-7.6-3.5-11.7-11.1-11.7
	c-12.9,0-28.1,4.1-28.1-17.6v-76.9h16.4c10.5,0,16.4-6.5,16.4-15.3c0-8.8-5.8-14.1-16.4-14.1h-16.4V68c0-14.1-7.6-21.7-18.2-21.7
	c-9.9,0-16.4,7.6-16.4,21.7v18.8h-7.6c-9.9,0-16.4,5.3-16.4,14.1c0,8.8,6.4,15.3,16.4,15.3h7.6l-1.2,78.1
	C1582.2,225.9,1599.2,241.1,1626.1,241.1z"/>
<path fill="#2D2926" d="M472.6,239.9c15.2,0,25.2-11.7,25.2-31.7v-72.8l58.5,82.8c11.1,15.8,19.3,20.5,30.4,20.5
	c15.2,0,25.8-11.7,25.8-29.3V72.7c0-20-10.5-31.7-25.8-31.7c-16.4,0-26.3,11.7-26.3,31.7v70.4L503,61.5
	C491.3,45.1,484.9,41,473.8,41c-18.1,0-28.1,12.9-28.1,31.7v135.6C445.7,228.2,455.6,239.9,472.6,239.9z M766.4,291
	c17.6,0,28.1-11.7,28.1-33.5V114.9c0-20.5-10.5-31.7-28.1-31.7c-15.2,0-25.8,8.8-26.9,24.1C736,92,717.8,82.1,695,82.1
	c-35.7,0-57.4,30.5-57.4,78.6c0,47.5,21.7,78.1,56.2,78.1c22.8,0,40.4-8.8,44.5-22.9v41.7C738.3,279.3,748.3,291,766.4,291z
	 M716.7,199.4c-12.9,0-21.7-14.1-21.7-38.7c0-24.1,8.8-39.3,21.7-39.3s21.7,14.1,21.7,38.1v1.2C738.3,185.4,729.5,199.4,716.7,199.4
	z M891.1,242.3c46.8,0,77.2-31.7,77.2-81.6c0-49.3-30.4-81.6-77.2-81.6c-47.4,0-76.7,32.3-76.7,81.6
	C814.4,210.6,843.6,242.3,891.1,242.3z M891.1,203c-12.9,0-20.5-15.3-20.5-42.3c0-26.4,7.6-41.7,20.5-41.7
	c12.3,0,19.9,15.3,19.9,41.7v2.9C911,187.7,903.3,203,891.1,203z M1059,242.3c46.8,0,77.2-31.7,77.2-81.6
	c-1.2-49.3-30.4-81.6-77.2-81.6c-47.4,0-77.8,32.3-77.8,81.6C981.2,210.6,1011.6,242.3,1059,242.3z M1059,203
	c-12.9,0-20.5-15.3-20.5-42.3c0-26.4,7.6-41.7,20.5-41.7c12.3,0,19.9,15.3,19.9,41.7C1078.9,187.7,1071.3,203,1059,203z
	 M1229.3,199.4c-12.9,0-21.7-14.1-21.7-38.7c0-24.1,8.8-39.3,21.7-39.3c14,0,22.8,14.1,22.8,38.1v1.2
	C1252.1,185.4,1243.4,199.4,1229.3,199.4z M1207.7,239.9c21.7,0,38-10,44.5-27c0,17,11.7,25.8,26.9,25.8c17.5,0,27.5-11.7,27.5-31.7
	V62.7c0-20.5-10-31.7-27.5-31.7c-17,0-26.9,11.2-26.9,31.7v44.6c-6.4-15.3-22.8-25.2-44.5-25.2c-35.7,0-57.3,30.5-57.3,78.6
	C1150.3,209.4,1172,239.9,1207.7,239.9z"/>
<path fill="#14C0FF" d="M224.4,222.8c21.2,20.7,34.4,31.1,49.9,31.1c19,0,34.4-15.4,65.2-46.2c30.8-30.8,46.2-46.2,46.2-65.2
	c0-19-15.4-34.4-46.2-65.2c-30.8-30.8-46.2-46.2-65.2-46.2c-15.6,0-28.7,10.4-49.9,31.1l15.5,15.5c30.5,30.5,45.8,45.8,45.8,64.8
	c0,19-15.3,34.2-45.8,64.8L224.4,222.8z"/>
<path fill-rule="evenodd" fill="#06038D" d="M224.4,62.2c-4.7,4.5-9.7,9.6-15.2,15.1c-30.8,30.8-46.2,46.2-46.2,65.2
	c0,19,15.4,34.4,46.2,65.2c5.5,5.5,10.6,10.6,15.2,15.1l15.5-15.5c30.5-30.5,45.8-45.8,45.8-64.8c0-19-15.3-34.2-45.8-64.8
	L224.4,62.2z"/>
<path fill-rule="evenodd" fill="#0202CF" d="M224.4,62.2c-4.7,4.5-9.7,9.6-15.2,15.1c-30.8,30.8-46.2,46.2-46.2,65.2
	c0,19,15.4,34.4,46.2,65.2c5.5,5.5,10.6,10.6,15.2,15.1l15.5-15.5c30.5-30.5,45.8-45.8,45.8-64.8c0-19-15.3-34.2-45.8-64.8
	L224.4,62.2z"/>
<path fill-rule="evenodd" fill="#0202CF" d="M224.4,62.2c-4.7,4.5-9.7,9.6-15.2,15.1c-30.8,30.8-46.2,46.2-46.2,65.2
	c0,19,15.4,34.4,46.2,65.2c5.5,5.5,10.6,10.6,15.2,15.1l15.5-15.5c30.5-30.5,45.8-45.8,45.8-64.8c0-19-15.3-34.2-45.8-64.8
	L224.4,62.2z"/>
<path fill="#2E38FF" d="M78.4,45.8l-32,32C16,108.3,0.7,123.5,0.7,142.5s15.3,34.2,45.8,64.8l32,32c30.5,30.5,45.8,45.8,64.8,45.8
	c19,0,34.2-15.3,64.8-45.8l16.4-16.4c-4.7-4.5-9.7-9.6-15.2-15.1c-30.8-30.8-46.2-46.2-46.2-65.2s15.4-34.4,46.2-65.2
	c5.5-5.5,10.6-10.6,15.2-15.1l-16.4-16.4C177.4,15.3,162.2,0,143.2,0C124.2,0,109,15.3,78.4,45.8z"/>
<path fill="#3842FF" d="M78.4,45.8l-32,32C16,108.3,0.7,123.5,0.7,142.5s15.3,34.2,45.8,64.8l32,32c30.5,30.5,45.8,45.8,64.8,45.8
	c19,0,34.2-15.3,64.8-45.8l16.4-16.4c-4.7-4.5-9.7-9.6-15.2-15.1c-30.8-30.8-46.2-46.2-46.2-65.2s15.4-34.4,46.2-65.2
	c5.5-5.5,10.6-10.6,15.2-15.1l-16.4-16.4C177.4,15.3,162.2,0,143.2,0C124.2,0,109,15.3,78.4,45.8z"/>
<path fill="#3842FF" d="M78.4,45.8l-32,32C16,108.3,0.7,123.5,0.7,142.5s15.3,34.2,45.8,64.8l32,32c30.5,30.5,45.8,45.8,64.8,45.8
	c19,0,34.2-15.3,64.8-45.8l16.4-16.4c-4.7-4.5-9.7-9.6-15.2-15.1c-30.8-30.8-46.2-46.2-46.2-65.2s15.4-34.4,46.2-65.2
	c5.5-5.5,10.6-10.6,15.2-15.1l-16.4-16.4C177.4,15.3,162.2,0,143.2,0C124.2,0,109,15.3,78.4,45.8z"/>
</svg>
